<svg xmlns="http://www.w3.org/2000/svg" width="60px" height="56px" viewBox="0 0 496 463" version="1.1">
<path d="M 42.112 30.581 C 1.282 41.561, 2.489 94.269, 45.265 168.241 C 50.898 177.981, 50.898 177.981, 49.526 182.741 C 9.334 322.183, 138.727 459.985, 283.500 431.920 C 304.583 427.833, 304.327 428.982, 287.124 415.661 C 240.911 379.879, 210.442 352.108, 140.003 281.565 C 91.684 233.175, 157.371 101.550, 208.844 143.617 C 236.118 165.908, 237.615 158.753, 197.204 199.240 C 161.908 234.602, 161.908 234.602, 197.204 269.551 C 305.829 377.108, 388.272 436.370, 432.500 438.688 C 490.537 441.730, 495.849 382.981, 445.333 296.759 C 441.383 290.018, 441.383 290.018, 443.591 281.259 C 479.078 140.467, 350.552 6.849, 207.789 36.114 C 187.457 40.281, 187.788 39.009, 203.838 51.340 C 234.166 74.640, 272.016 107.460, 301.982 136.442 C 333.174 166.609, 399 232.462, 399 233.499 C 399 234.743, 299.842 334, 298.599 334 C 297.521 334, 292.845 330.220, 274.630 314.625 C 260.760 302.750, 260.760 302.750, 295.415 268.085 C 330.070 233.419, 330.070 233.419, 293.285 196.953 C 170.110 74.846, 85.618 18.880, 42.112 30.581" stroke="none" fill="#3374f8" fill-rule="evenodd"/>
</svg>
